<svg width="512" height="512" viewBox="0 0 512 512" fill="none" xmlns="http://www.w3.org/2000/svg">
<rect width="512" height="512" fill="url(#paint0_linear_211_470)"/>
<circle cx="256" cy="262" r="190" fill="#F3F3F3" stroke="#4D545D" stroke-width="28"/>
<mask id="mask0_211_470" style="mask-type:alpha" maskUnits="userSpaceOnUse" x="80" y="86" width="352" height="352">
<circle cx="256" cy="262" r="176" fill="#D9D9D9"/>
</mask>
<g mask="url(#mask0_211_470)">
<path d="M118.317 76.6828H136.953M127.635 86.0005V67.3652" stroke="#E2E2E2" stroke-width="2"/>
<path d="M127.635 179.177V160.542M136.953 169.86H118.317" stroke="#E2E2E2" stroke-width="2"/>
<path d="M127.634 127.412V119.13M131.776 123.271H123.493" stroke="#E2E2E2" stroke-width="2"/>
<path d="M127.635 272.353V253.718M136.953 263.035H118.317" stroke="#E2E2E2" stroke-width="2"/>
<path d="M127.634 220.589V212.307M131.776 216.448H123.493" stroke="#E2E2E2" stroke-width="2"/>
<path d="M127.635 365.531V346.896M136.953 356.213H118.317" stroke="#E2E2E2" stroke-width="2"/>
<path d="M127.634 313.765V305.483M131.776 309.624H123.493" stroke="#E2E2E2" stroke-width="2"/>
<path d="M127.634 406.942V398.66M131.776 402.801H123.493" stroke="#E2E2E2" stroke-width="2"/>
<path d="M127.635 179.177V160.542M136.953 169.86H118.317" stroke="#E2E2E2" stroke-width="2"/>
<path d="M127.634 127.412V119.13M131.776 123.271H123.493" stroke="#E2E2E2" stroke-width="2"/>
<path d="M75.8821 132.589V113.954M85.1997 123.271H66.5645" stroke="#E2E2E2" stroke-width="2"/>
<path d="M75.8821 225.765V207.13M85.1997 216.448H66.5645" stroke="#E2E2E2" stroke-width="2"/>
<path d="M75.8804 174.001V165.718M80.0216 169.859H71.7393" stroke="#E2E2E2" stroke-width="2"/>
<path d="M75.8821 318.942V300.307M85.1997 309.624H66.5645" stroke="#E2E2E2" stroke-width="2"/>
<path d="M75.8804 267.177V258.895M80.0216 263.036H71.7393" stroke="#E2E2E2" stroke-width="2"/>
<path d="M75.8821 412.119V393.483M85.1997 402.801H66.5645" stroke="#E2E2E2" stroke-width="2"/>
<path d="M75.8804 360.353V352.071M80.0216 356.212H71.7393" stroke="#E2E2E2" stroke-width="2"/>
<path d="M75.8821 132.589V113.954M85.1997 123.271H66.5645" stroke="#E2E2E2" stroke-width="2"/>
<path d="M221.843 76.6828H240.478M231.16 86.0005V67.3652" stroke="#E2E2E2" stroke-width="2"/>
<path d="M231.16 179.177V160.542M240.478 169.86H221.843" stroke="#E2E2E2" stroke-width="2"/>
<path d="M231.16 127.412V119.13M235.301 123.271H227.019" stroke="#E2E2E2" stroke-width="2"/>
<path d="M231.16 272.353V253.718M240.478 263.035H221.843" stroke="#E2E2E2" stroke-width="2"/>
<path d="M231.16 220.589V212.307M235.301 216.448H227.019" stroke="#E2E2E2" stroke-width="2"/>
<path d="M231.16 365.531V346.896M240.478 356.213H221.843" stroke="#E2E2E2" stroke-width="2"/>
<path d="M231.16 313.765V305.483M235.301 309.624H227.019" stroke="#E2E2E2" stroke-width="2"/>
<path d="M231.16 406.942V398.66M235.301 402.801H227.019" stroke="#E2E2E2" stroke-width="2"/>
<path d="M231.16 179.177V160.542M240.478 169.86H221.843" stroke="#E2E2E2" stroke-width="2"/>
<path d="M231.16 127.412V119.13M235.301 123.271H227.019" stroke="#E2E2E2" stroke-width="2"/>
<path d="M179.407 132.589V113.954M188.725 123.271H170.09" stroke="#E2E2E2" stroke-width="2"/>
<path d="M179.407 225.765V207.13M188.725 216.448H170.09" stroke="#E2E2E2" stroke-width="2"/>
<path d="M179.406 174.001V165.718M183.547 169.859H175.265" stroke="#E2E2E2" stroke-width="2"/>
<path d="M179.407 318.942V300.307M188.725 309.624H170.09" stroke="#E2E2E2" stroke-width="2"/>
<path d="M179.406 267.177V258.895M183.547 263.036H175.265" stroke="#E2E2E2" stroke-width="2"/>
<path d="M179.407 412.119V393.483M188.725 402.801H170.09" stroke="#E2E2E2" stroke-width="2"/>
<path d="M179.406 360.353V352.071M183.547 356.212H175.265" stroke="#E2E2E2" stroke-width="2"/>
<path d="M179.407 132.589V113.954M188.725 123.271H170.09" stroke="#E2E2E2" stroke-width="2"/>
<path d="M325.369 76.6828H344.004M334.687 86.0005V67.3652" stroke="#E2E2E2" stroke-width="2"/>
<path d="M334.687 179.177V160.542M344.004 169.86H325.369" stroke="#E2E2E2" stroke-width="2"/>
<path d="M334.706 127.412V119.13M338.847 123.271H330.564" stroke="#E2E2E2" stroke-width="2"/>
<path d="M334.687 272.353V253.718M344.004 263.035H325.369" stroke="#E2E2E2" stroke-width="2"/>
<path d="M334.706 220.589V212.307M338.847 216.448H330.564" stroke="#E2E2E2" stroke-width="2"/>
<path d="M334.687 365.531V346.896M344.004 356.213H325.369" stroke="#E2E2E2" stroke-width="2"/>
<path d="M334.706 313.765V305.483M338.847 309.624H330.564" stroke="#E2E2E2" stroke-width="2"/>
<path d="M334.706 406.942V398.66M338.847 402.801H330.564" stroke="#E2E2E2" stroke-width="2"/>
<path d="M334.687 179.177V160.542M344.004 169.86H325.369" stroke="#E2E2E2" stroke-width="2"/>
<path d="M334.706 127.412V119.13M338.847 123.271H330.564" stroke="#E2E2E2" stroke-width="2"/>
<path d="M282.934 132.589V113.954M292.251 123.271H273.616" stroke="#E2E2E2" stroke-width="2"/>
<path d="M282.934 225.765V207.13M292.251 216.448H273.616" stroke="#E2E2E2" stroke-width="2"/>
<path d="M282.932 174.001V165.718M287.073 169.859H278.791" stroke="#E2E2E2" stroke-width="2"/>
<path d="M282.934 318.942V300.307M292.251 309.624H273.616" stroke="#E2E2E2" stroke-width="2"/>
<path d="M282.932 267.177V258.895M287.073 263.036H278.791" stroke="#E2E2E2" stroke-width="2"/>
<path d="M282.934 412.119V393.483M292.251 402.801H273.616" stroke="#E2E2E2" stroke-width="2"/>
<path d="M282.932 360.353V352.071M287.073 356.212H278.791" stroke="#E2E2E2" stroke-width="2"/>
<path d="M282.934 132.589V113.954M292.251 123.271H273.616" stroke="#E2E2E2" stroke-width="2"/>
<path d="M428.915 76.6828H447.55M438.233 86.0005V67.3652" stroke="#E2E2E2" stroke-width="2"/>
<path d="M438.233 179.177V160.542M447.55 169.86H428.915" stroke="#E2E2E2" stroke-width="2"/>
<path d="M438.233 272.353V253.718M447.55 263.035H428.915" stroke="#E2E2E2" stroke-width="2"/>
<path d="M438.233 365.531V346.896M447.55 356.213H428.915" stroke="#E2E2E2" stroke-width="2"/>
<path d="M438.233 179.177V160.542M447.55 169.86H428.915" stroke="#E2E2E2" stroke-width="2"/>
<path d="M386.46 132.589V113.954M395.778 123.271H377.143" stroke="#E2E2E2" stroke-width="2"/>
<path d="M386.46 225.765V207.13M395.778 216.448H377.143" stroke="#E2E2E2" stroke-width="2"/>
<path d="M386.459 174.001V165.718M390.6 169.859H382.317" stroke="#E2E2E2" stroke-width="2"/>
<path d="M386.46 318.942V300.307M395.778 309.624H377.143" stroke="#E2E2E2" stroke-width="2"/>
<path d="M386.459 267.177V258.895M390.6 263.036H382.317" stroke="#E2E2E2" stroke-width="2"/>
<path d="M386.46 412.119V393.483M395.778 402.801H377.143" stroke="#E2E2E2" stroke-width="2"/>
<path d="M386.459 360.353V352.071M390.6 356.212H382.317" stroke="#E2E2E2" stroke-width="2"/>
<path d="M386.46 132.589V113.954M395.778 123.271H377.143" stroke="#E2E2E2" stroke-width="2"/>
<path d="M75.0898 325.923C75.0898 325.923 96.4336 293.46 131.697 283.37C166.961 273.281 186.449 302.173 215.216 290.329C243.984 278.484 244.448 245.084 271.36 233.738C298.272 222.393 328.431 249.153 361.839 233.738C395.247 218.324 444.43 161.42 444.43 168.874C444.43 176.328 444.43 451.326 444.43 451.326H75.0898V325.923Z" fill="url(#paint1_linear_211_470)"/>
</g>
<defs>
<linearGradient id="paint0_linear_211_470" x1="256" y1="0" x2="256" y2="512" gradientUnits="userSpaceOnUse">
<stop stop-color="#8790F2"/>
<stop offset="1" stop-color="#4C38D7"/>
</linearGradient>
<linearGradient id="paint1_linear_211_470" x1="266.72" y1="218.384" x2="265.891" y2="462.293" gradientUnits="userSpaceOnUse">
<stop stop-color="#4C39D7"/>
<stop offset="1" stop-color="white"/>
</linearGradient>
</defs>
</svg>
